<?xml version="1.0" encoding="UTF-8" standalone="no"?>
<!-- Created with Inkscape (http://www.inkscape.org/) -->

<svg
   width="1024mm"
   height="1024mm"
   viewBox="0 0 1024 1024"
   version="1.1"
   id="svg1"
   inkscape:version="1.4 (e7c3feb100, 2024-10-09)"
   sodipodi:docname="Nullify_dark.svg"
   xmlns:inkscape="http://www.inkscape.org/namespaces/inkscape"
   xmlns:sodipodi="http://sodipodi.sourceforge.net/DTD/sodipodi-0.dtd"
   xmlns="http://www.w3.org/2000/svg"
   xmlns:svg="http://www.w3.org/2000/svg">
  <sodipodi:namedview
     id="namedview1"
     pagecolor="#000000"
     bordercolor="#000000"
     borderopacity="0.25"
     inkscape:showpageshadow="2"
     inkscape:pageopacity="0.0"
     inkscape:pagecheckerboard="0"
     inkscape:deskcolor="#d1d1d1"
     inkscape:document-units="mm"
     showgrid="true"
     inkscape:zoom="0.18262486"
     inkscape:cx="2157.4281"
     inkscape:cy="2031.4868"
     inkscape:window-width="1920"
     inkscape:window-height="1029"
     inkscape:window-x="0"
     inkscape:window-y="27"
     inkscape:window-maximized="1"
     inkscape:current-layer="layer2">
    <inkscape:grid
       id="grid4"
       units="mm"
       originx="0"
       originy="0"
       spacingx="0.99999997"
       spacingy="0.99999997"
       empcolor="#0099e5"
       empopacity="0.30196078"
       color="#0099e5"
       opacity="0.14901961"
       empspacing="5"
       enabled="true"
       visible="true" />
  </sodipodi:namedview>
  <defs
     id="defs1" />
  <g
     inkscape:label="Layer 1"
     inkscape:groupmode="layer"
     id="layer1" />
  <g
     inkscape:groupmode="layer"
     id="layer2"
     inkscape:label="Layer 2">
    <circle
       style="fill:#ffffff;stroke-width:1.94813"
       id="path1"
       cx="510.57343"
       cy="505.23895"
       r="434.69617" />
    <path
       sodipodi:type="star"
       style="fill:#ffffff;stroke-width:0.264583"
       id="path2"
       inkscape:flatsided="false"
       sodipodi:sides="3"
       sodipodi:cx="28.251221"
       sodipodi:cy="78.958534"
       sodipodi:r1="28.457106"
       sodipodi:r2="14.228553"
       sodipodi:arg1="2.4012091"
       sodipodi:arg2="3.4484067"
       inkscape:rounded="0"
       inkscape:randomized="0"
       d="M 7.2439042,98.154875 14.687132,74.661184 22.13036,51.167494 38.754879,69.360364 55.379398,87.553233 31.31165,92.854055 Z"
       inkscape:transform-center-x="-4.8240458"
       inkscape:transform-center-y="-1.8956608"
       transform="matrix(0,-3.8172258,-6.9178818,0,834.21835,977.97787)" />
    <path
       style="fill:#000000;fill-opacity:1;stroke-width:2.00489"
       d="m 478.80736,716.1312 c -33.07385,-5.21522 -74.37453,-22.47994 -99.41188,-41.55655 -16.39029,-12.4882 -40.74898,-37.9986 -50.80391,-53.20603 -11.94465,-18.0656 -25.06885,-47.46765 -30.80332,-69.0086 -4.5513,-17.09661 -5.23253,-23.70323 -5.32905,-51.68069 -0.092,-26.64248 0.63763,-35.07018 4.30714,-49.73518 11.04835,-44.15908 30.9558,-78.36175 63.82511,-109.65692 74.20357,-70.64977 183.44522,-79.75992 271.15549,-22.61284 14.67612,9.56219 49.51186,44.45573 59.16263,59.26092 43.72917,67.08442 49.02773,146.58516 14.46097,216.97373 -12.86834,26.20379 -25.07828,42.78397 -46.51061,63.15744 -39.45501,37.506 -87.60957,57.55115 -142.12967,59.16394 -14.33497,0.42411 -31.40023,-0.0736 -37.9229,-1.09922 z"
       id="path4" />
    <circle
       style="fill:#ffffff;stroke-width:0.951824"
       id="path3"
       cx="511.49066"
       cy="497.9476"
       r="142.67635" />
    <rect
       style="fill:#000000;fill-opacity:1;stroke-width:1.26976"
       id="rect4"
       width="56.003082"
       height="298.68689"
       x="-88.221474"
       y="560.75592"
       transform="rotate(-50.763003)"
       ry="2.6200609" />
  </g>
</svg>
